<svg width="14" height="14" viewBox="0 0 14 14" fill="none" xmlns="http://www.w3.org/2000/svg">
<path d="M2.91666 5.83366H4.08332C5.24999 5.83366 5.83332 5.25033 5.83332 4.08366V2.91699C5.83332 1.75033 5.24999 1.16699 4.08332 1.16699H2.91666C1.74999 1.16699 1.16666 1.75033 1.16666 2.91699V4.08366C1.16666 5.25033 1.74999 5.83366 2.91666 5.83366Z" stroke="#767676" stroke-width="1.5" stroke-miterlimit="10" stroke-linecap="round" stroke-linejoin="round"/>
<path d="M9.91666 5.83366H11.0833C12.25 5.83366 12.8333 5.25033 12.8333 4.08366V2.91699C12.8333 1.75033 12.25 1.16699 11.0833 1.16699H9.91666C8.74999 1.16699 8.16666 1.75033 8.16666 2.91699V4.08366C8.16666 5.25033 8.74999 5.83366 9.91666 5.83366Z" stroke="#767676" stroke-width="1.5" stroke-miterlimit="10" stroke-linecap="round" stroke-linejoin="round"/>
<path d="M9.91666 12.8337H11.0833C12.25 12.8337 12.8333 12.2503 12.8333 11.0837V9.91699C12.8333 8.75033 12.25 8.16699 11.0833 8.16699H9.91666C8.74999 8.16699 8.16666 8.75033 8.16666 9.91699V11.0837C8.16666 12.2503 8.74999 12.8337 9.91666 12.8337Z" stroke="#767676" stroke-width="1.5" stroke-miterlimit="10" stroke-linecap="round" stroke-linejoin="round"/>
<path d="M2.91666 12.8337H4.08332C5.24999 12.8337 5.83332 12.2503 5.83332 11.0837V9.91699C5.83332 8.75033 5.24999 8.16699 4.08332 8.16699H2.91666C1.74999 8.16699 1.16666 8.75033 1.16666 9.91699V11.0837C1.16666 12.2503 1.74999 12.8337 2.91666 12.8337Z" stroke="#767676" stroke-width="1.5" stroke-miterlimit="10" stroke-linecap="round" stroke-linejoin="round"/>
</svg>
