<svg width="12" height="12" viewBox="0 0 12 12" fill="none" xmlns="http://www.w3.org/2000/svg">
<path d="M4.24886 0.75C4.24886 1.7165 5.03236 2.5 5.99883 2.5C6.96536 2.5 7.74883 1.7165 7.74883 0.75H11.2195C11.5417 0.75 11.8322 1.01117 11.8322 1.33333V5.41667C11.8322 5.73884 11.571 6 11.2488 6H10.0816L10.0822 10.6667C10.0822 10.9888 9.82101 11.25 9.49883 11.25H2.49886C2.17669 11.25 1.91553 10.9888 1.91553 10.6667L1.91494 5.99942L0.748861 6C0.426692 6 0.165527 5.73884 0.165527 5.41667V1.33333C0.165527 1.01117 0.426692 0.75 0.748861 0.75H4.24886ZM10.6655 1.91608H8.67225L8.66245 1.94011C8.22337 2.92134 7.25801 3.61563 6.12536 3.66397L5.99883 3.66667C4.81193 3.66667 3.79059 2.95768 3.33525 1.94011L3.32486 1.91608H1.33219V4.83275L3.08146 4.83217L3.08161 10.0833H8.9155L8.9148 4.83333L10.6655 4.83275V1.91608Z" fill="#767676"/>
</svg>
